# xmcd
#
# Track frame offsets: 
#        150
#        16010
#        34343
#        55875
#        75445
#        95431
#        114998
#        132397
#        149539
#        167866
#
# Disc length: 2467 seconds
#
# Revision: 2
# Processed by: cddbd v1.5.2PL0 Copyright (c) Steve Scherf et al.
# Submitted via: ExactAudioCopyFreeDBPlugin 1.0
#
DISCID=7e09a10a
DTITLE=ตั๊กแตน ชลดา - ถนนค้นฝัน
DYEAR=2007
DGENRE=Country
TTITLE0=ถนนค้นฝัน
TTITLE1=จิรักหรือจิหลอก
TTITLE2=ปลายทางของความคิดถึง
TTITLE3=ไม่ใช่แฟนทำแทนไม่ได้
TTITLE4=คนโสดประจำคอนเสิร์ต
TTITLE5=ขอคุยด้วยได้ไหม
TTITLE6=รอเป็นคนถัดไป
TTITLE7=รักนอกเครื่องแบบ
TTITLE8=หน้าไมค์สายเก่า
TTITLE9=โปรดช่วยกันดูแลคนดี
EXTD=
EXTT0=
EXTT1=
EXTT2=
EXTT3=
EXTT4=
EXTT5=
EXTT6=
EXTT7=
EXTT8=
EXTT9=
PLAYORDER=
